<svg xmlns="http://www.w3.org/2000/svg" xmlns:xlink="http://www.w3.org/1999/xlink" version="1.1" width="500" height="100" viewBox="0 0 500 100" xml:space="preserve">
<desc>Created with Fabric.js 5.2.4</desc>
<defs>
</defs>
<g transform="matrix(1 0 0 1 250 50)" id="d2f6dfd5-5234-4cdd-a34c-b78da1422401"  >
<rect style="stroke: none; stroke-width: 1; stroke-dasharray: none; stroke-linecap: butt; stroke-dashoffset: 0; stroke-linejoin: miter; stroke-miterlimit: 4; fill: #EBF0F0; fill-rule: nonzero; opacity: 1; visibility: hidden;" vector-effect="non-scaling-stroke"  x="-250" y="-50" rx="0" ry="0" width="500" height="100" />
</g>
<g transform="matrix(0 0 0 0 0 0)" id="b0dd0719-6721-4b07-96da-12bf8c8442a7"  >
</g>
<g transform="matrix(1 0 0 1 250 50)"  >
<rect style="stroke: none; stroke-width: 1; stroke-dasharray: none; stroke-linecap: butt; stroke-dashoffset: 0; stroke-linejoin: miter; stroke-miterlimit: 4; fill: #EBF0F0; fill-rule: nonzero; opacity: 1; visibility: hidden;" vector-effect="non-scaling-stroke"  x="-250" y="-540" rx="0" ry="0" width="500" height="1080" />
</g>
<g transform="matrix(0.28 0 0 0.28 48.55 49.13)"  >
<rect style="stroke: none; stroke-width: 1; stroke-dasharray: none; stroke-linecap: butt; stroke-dashoffset: 0; stroke-linejoin: miter; stroke-miterlimit: 4; fill: #EBF0F0; fill-rule: nonzero; opacity: 1;" vector-effect="non-scaling-stroke"  x="-166.665" y="-166.665" rx="13.333333333333334" ry="13.333333333333334" width="333.33" height="333.33" />
</g>
<g transform="matrix(0.28 0 0 0.28 48.23 48.81)"  >
<path style="stroke: none; stroke-width: 1; stroke-dasharray: none; stroke-linecap: butt; stroke-dashoffset: 0; stroke-linejoin: miter; stroke-miterlimit: 4; fill: rgb(0,0,0); fill-rule: nonzero; opacity: 1;" vector-effect="non-scaling-stroke"  transform=" translate(-459.72, -481.94)" d="M 471.7013981295371 461.9502251278901 Q 505.87385173265625 465.91434548659237 520.3414442826644 476.6203639735984 Q 534.8379720177725 487.3553176457044 534.8379720177725 508.8252249899165 Q 534.8379720177725 530.2661971490285 513.7731572649607 543.6053174801359 Q 492.7372776972489 556.9444378112435 457.9571852070294 556.9444378112435 Q 423.14815753170984 556.9444378112435 403.87732425509904 544.1261508119362 Q 384.60649097848824 531.307863812629 384.60649097848824 512.5578638678185 L 384.60649097848824 512.5578638678185 Q 384.60649097848824 507.98610462201594 389.40973170509096 507.98610462201594 L 389.40973170509096 507.98610462201594 L 432.1180649127149 507.98610462201594 Q 436.48727786281734 507.98610462201594 439.20718526221884 510.70601202141745 L 439.20718526221884 510.70601202141745 Q 445.0231574673221 516.3194379308206 459.40394446203015 516.3194379308206 L 459.40394446203015 516.3194379308206 Q 479.19561107044126 516.3194379308206 479.19561107044126 510.27198424491723 L 479.19561107044126 510.27198424491723 Q 479.19561107044126 506.53934536701513 472.9456110888378 504.3402712994139 Q 466.6956111072343 502.14119723181267 448.1481574581239 500.0578639046115 L 448.1481574581239 500.0578639046115 Q 389.20718540939083 492.99767874020756 389.20718540939083 454.86110477838616 L 389.20718540939083 454.86110477838616 Q 389.20718540939083 433.39119743417416 408.15973164990146 420.1678178434667 Q 427.1122778904121 406.9444382527593 458.8831111302299 406.9444382527593 Q 490.6539443700477 406.9444382527593 510.2430646827587 420.8043919156671 Q 529.8321849954697 434.66434557857485 529.8321849954697 450.0578640517835 L 529.8321849954697 450.0578640517835 Q 529.8321849954697 452.14119737898466 528.4722312957689 453.41434552338535 Q 527.1122775960682 454.65855848268603 524.8263979731669 454.65855848268603 L 524.8263979731669 454.65855848268603 L 480.03473143834174 454.65855848268603 Q 476.2731573753396 454.65855848268603 473.5821851610381 452.14119737898466 L 473.5821851610381 452.14119737898466 Q 468.5763981387353 447.5694381331821 458.56482409412973 447.5694381331821 L 458.56482409412973 447.5694381331821 Q 444.6180648759219 447.5694381331821 444.6180648759219 453.41434552338535 L 444.6180648759219 453.41434552338535 Q 444.6180648759219 456.5393455141871 450.0289444896249 458.3043918052881 Q 455.43982410332796 460.0694380963891 471.7013981295371 461.9502251278901 L 471.7013981295371 461.9502251278901 Z" stroke-linecap="round" />
</g>
<g transform="matrix(0.28 0 0 0.28 302.42 48.81)"  >
<path style="stroke: none; stroke-width: 1; stroke-dasharray: none; stroke-linecap: butt; stroke-dashoffset: 0; stroke-linejoin: miter; stroke-miterlimit: 4; fill: #EBF0F0; fill-rule: nonzero; opacity: 1;" vector-effect="non-scaling-stroke"  transform=" translate(-1380.56, -481.94)" d="M 709.7222288935272 488.83101208580524 Q 709.7222288935272 481.94443803200136 716.8981547983312 477.0543917500986 Q 724.1030158882354 472.16434546819585 734.6064880795412 472.16434546819585 Q 745.1388954559471 472.16434546819585 761.2847287417562 476.5335584182983 Q 777.4305620275652 480.90277136840075 787.2106545913707 480.90277136840075 Q 797.0196823402762 480.90277136840075 803.0671360261797 475.49189175469775 L 803.0671360261797 475.49189175469775 Q 805.1504693533808 473.8136510188968 807.5231545315821 473.72684546359676 Q 809.9247748948835 473.6111047231967 810.879636003184 475.37615101429765 Q 811.8055619263845 477.1411973053987 811.8055619263845 481.307863959801 L 811.8055619263845 481.307863959801 L 811.8055619263845 501.73610464041246 Q 811.8055619263845 508.6226786942163 804.6296360215805 513.512724976119 Q 797.4247749316764 518.4027712580219 786.9213027403706 518.4027712580219 Q 776.3888953639646 518.4027712580219 760.2430620781556 514.0335583079193 Q 744.0972287923465 509.6643453578169 734.3171362285411 509.6643453578169 Q 724.5081084796356 509.6643453578169 718.4606547937321 515.0752249715199 L 718.4606547937321 515.0752249715199 Q 716.3773214665309 516.7245305222209 714.0046362883297 516.840271262621 Q 711.6030159250283 516.956012003021 710.6481548167278 515.16203052682 Q 709.7222288935272 513.396984235719 709.7222288935272 509.2303175813167 L 709.7222288935272 509.2303175813167 L 709.7222288935272 488.83101208580524 Z M 949.3055615216616 461.9502251278901 Q 983.4780151247808 465.91434548659237 997.9456076747889 476.6203639735984 Q 1012.4421354098971 487.3553176457044 1012.4421354098971 508.8252249899165 Q 1012.4421354098971 530.2661971490285 991.3773206570852 543.6053174801359 Q 970.3414410893735 556.9444378112435 935.5613485991539 556.9444378112435 Q 900.7523209238344 556.9444378112435 881.4814876472236 544.1261508119362 Q 862.2106543706128 531.307863812629 862.2106543706128 512.5578638678185 L 862.2106543706128 512.5578638678185 Q 862.2106543706128 507.98610462201594 867.0138950972155 507.98610462201594 L 867.0138950972155 507.98610462201594 L 909.7222283048394 507.98610462201594 Q 914.0914412549419 507.98610462201594 916.8113486543434 510.70601202141745 L 916.8113486543434 510.70601202141745 Q 922.6273208594467 516.3194379308206 937.0081078541547 516.3194379308206 L 937.0081078541547 516.3194379308206 Q 956.7997744625658 516.3194379308206 956.7997744625658 510.27198424491723 L 956.7997744625658 510.27198424491723 Q 956.7997744625658 506.53934536701513 950.5497744809624 504.3402712994139 Q 944.2997744993588 502.14119723181267 925.7523208502485 500.0578639046115 L 925.7523208502485 500.0578639046115 Q 866.8113488015154 492.99767874020756 866.8113488015154 454.86110477838616 L 866.8113488015154 454.86110477838616 Q 866.8113488015154 433.39119743417416 885.763895042026 420.1678178434667 Q 904.7164412825366 406.9444382527593 936.4872745223544 406.9444382527593 Q 968.2581077621722 406.9444382527593 987.8472280748832 420.8043919156671 Q 1007.4363483875942 434.66434557857485 1007.4363483875942 450.0578640517835 L 1007.4363483875942 450.0578640517835 Q 1007.4363483875942 452.14119737898466 1006.0763946878934 453.41434552338535 Q 1004.7164409881926 454.65855848268603 1002.4305613652915 454.65855848268603 L 1002.4305613652915 454.65855848268603 L 957.6388948304663 454.65855848268603 Q 953.8773207674642 454.65855848268603 951.1863485531627 452.14119737898466 L 951.1863485531627 452.14119737898466 Q 946.1805615308599 447.5694381331821 936.1689874862542 447.5694381331821 L 936.1689874862542 447.5694381331821 Q 922.2222282680465 447.5694381331821 922.2222282680465 453.41434552338535 L 922.2222282680465 453.41434552338535 Q 922.2222282680465 456.5393455141871 927.6331078817494 458.3043918052881 Q 933.0439874954525 460.0694380963891 949.3055615216616 461.9502251278901 L 949.3055615216616 461.9502251278901 Z M 1095.7754684979436 465.277771414392 L 1095.7754684979436 465.277771414392 L 1095.7754684979436 498.6111046496107 Q 1095.7754684979436 507.1469842541155 1101.504635147747 511.74767868501806 Q 1107.2338017975503 516.3194379308206 1116.4930610295555 516.3194379308206 Q 1125.7523202615607 516.3194379308206 1129.918986915963 513.396984235719 Q 1134.0856535703651 510.47453054061737 1136.921301710167 504.8611046312142 Q 1139.7280146648684 499.24767872181104 1144.2997739106709 499.24767872181104 L 1144.2997739106709 499.24767872181104 L 1189.293986741196 499.24767872181104 Q 1191.1747737726973 499.24767872181104 1192.5347274723981 500.5786972364118 Q 1193.894681172099 501.9386509361126 1193.894681172099 503.8194379676136 L 1193.894681172099 503.8194379676136 Q 1193.894681172099 523.2060119846245 1175.5497738186887 539.2361045300335 L 1175.5497738186887 539.2361045300335 Q 1166.3773201419833 547.164345247438 1151.1863479644749 552.0543915293407 Q 1135.9664406018665 556.9444378112435 1115.3356536255546 556.9444378112435 Q 1094.733801834343 556.9444378112435 1077.7488481806336 550.5786970892399 Q 1060.763894526924 544.2418915523363 1050.1446815952181 529.7453638172282 Q 1039.5254686635121 515.27777126722 1039.5254686635121 494.24189169950824 L 1039.5254686635121 494.24189169950824 L 1039.5254686635121 469.6469843644945 Q 1039.5254686635121 448.6111047967827 1050.1446815952181 434.0277715063745 L 1050.1446815952181 434.0277715063745 Q 1070.1388944993296 406.9444382527593 1117.0138943613556 406.9444382527593 L 1117.0138943613556 406.9444382527593 Q 1135.9664406018665 406.9444382527593 1151.1863479644749 411.834484534662 Q 1166.3773201419833 416.72453081656477 1175.5497738186887 424.65277153396926 L 1175.5497738186887 424.65277153396926 Q 1193.894681172099 440.6828640793782 1193.894681172099 460.0694380963891 L 1193.894681172099 460.0694380963891 Q 1193.894681172099 461.9502251278901 1192.5347274723981 463.3101788275909 Q 1191.1747737726973 464.6411973421917 1189.293986741196 464.6411973421917 L 1189.293986741196 464.6411973421917 L 1144.2997739106709 464.6411973421917 Q 1139.7280146648684 464.6411973421917 1136.921301710167 459.02777143278854 Q 1134.0856535703651 453.41434552338535 1129.918986915963 450.4918918282837 Q 1125.7523202615607 447.5694381331821 1116.4930610295555 447.5694381331821 Q 1107.2338017975503 447.5694381331821 1101.504635147747 452.14119737898466 Q 1095.7754684979436 456.74189180988725 1095.7754684979436 465.277771414392 Z M 1369.5023195440972 469.2418917730942 L 1369.5023195440972 469.2418917730942 L 1369.5023195440972 494.64698429090845 Q 1369.5023195440972 516.1168916351205 1359.0856529080916 530.4976786298286 Q 1348.6689862720855 544.8495304394366 1331.7997733587763 550.89698412534 Q 1314.9305604454667 556.9444378112435 1292.0138938462537 556.9444378112435 Q 1269.0972272470408 556.9444378112435 1252.2280143337314 550.89698412534 Q 1235.358801420422 544.8495304394366 1224.9421347844163 530.4976786298286 Q 1214.5254681484103 516.1168916351205 1214.5254681484103 494.24189169950824 L 1214.5254681484103 494.24189169950824 L 1214.5254681484103 469.6469843644945 Q 1214.5254681484103 438.1944381607768 1236.0821810479224 422.56943820676804 Q 1257.6388939474346 406.9444382527593 1292.0138938462537 406.9444382527593 Q 1326.3888937450733 406.9444382527593 1347.945606644585 422.56943820676804 Q 1369.5023195440972 438.1944381607768 1369.5023195440972 469.2418917730942 Z M 1270.7754679828417 465.277771414392 L 1270.7754679828417 465.277771414392 L 1270.7754679828417 498.6111046496107 Q 1270.7754679828417 507.1469842541155 1276.5046346326449 511.74767868501806 Q 1282.2338012824484 516.3194379308206 1292.0138938462537 516.3194379308206 Q 1301.7939864100592 516.3194379308206 1307.5231530598626 511.631937944618 Q 1313.2523197096657 506.9444379584154 1313.2523197096657 498.4085583539106 L 1313.2523197096657 498.4085583539106 L 1313.2523197096657 465.4803177100921 Q 1313.2523197096657 456.9444381055873 1307.5231530598626 452.2569381193847 Q 1301.7939864100592 447.5694381331821 1292.0138938462537 447.5694381331821 Q 1282.2338012824484 447.5694381331821 1276.5046346326449 452.14119737898466 Q 1270.7754679828417 456.74189180988725 1270.7754679828417 465.277771414392 Z M 1546.5856523561965 469.2418917730942 L 1546.5856523561965 469.2418917730942 L 1546.5856523561965 494.64698429090845 Q 1546.5856523561965 516.1168916351205 1536.168985720191 530.4976786298286 Q 1525.7523190841848 544.8495304394366 1508.8831061708752 550.89698412534 Q 1492.013893257566 556.9444378112435 1469.097226658353 556.9444378112435 Q 1446.1805600591401 556.9444378112435 1429.3113471458305 550.89698412534 Q 1412.4421342325213 544.8495304394366 1402.0254675965157 530.4976786298286 Q 1391.6088009605096 516.1168916351205 1391.6088009605096 494.24189169950824 L 1391.6088009605096 494.24189169950824 L 1391.6088009605096 469.6469843644945 Q 1391.6088009605096 438.1944381607768 1413.1655138600217 422.56943820676804 Q 1434.722226759534 406.9444382527593 1469.097226658353 406.9444382527593 Q 1503.4722265571722 406.9444382527593 1525.0289394566844 422.56943820676804 Q 1546.5856523561965 438.1944381607768 1546.5856523561965 469.2418917730942 Z M 1447.858800794941 465.277771414392 L 1447.858800794941 465.277771414392 L 1447.858800794941 498.6111046496107 Q 1447.858800794941 507.1469842541155 1453.5879674447447 511.74767868501806 Q 1459.3171340945478 516.3194379308206 1469.097226658353 516.3194379308206 Q 1478.8773192221588 516.3194379308206 1484.606485871962 511.631937944618 Q 1490.335652521765 506.9444379584154 1490.335652521765 498.4085583539106 L 1490.335652521765 498.4085583539106 L 1490.335652521765 465.4803177100921 Q 1490.335652521765 456.9444381055873 1484.606485871962 452.2569381193847 Q 1478.8773192221588 447.5694381331821 1469.097226658353 447.5694381331821 Q 1459.3171340945478 447.5694381331821 1453.5879674447447 452.14119737898466 Q 1447.858800794941 456.74189180988725 1447.858800794941 465.277771414392 Z M 1574.3055596820122 409.0277715799605 L 1574.3055596820122 409.0277715799605 L 1718.0555592588926 409.0277715799605 Q 1720.3414388817941 409.0277715799605 1722.019679617595 410.7060123157614 Q 1723.6689851682959 412.3553178664623 1723.6689851682959 414.6411974893636 L 1723.6689851682959 414.6411974893636 L 1723.6689851682959 448.2060122053824 Q 1723.6689851682959 450.4918918282837 1722.019679617595 452.14119737898466 Q 1720.3414388817941 453.81943811478556 1718.0555592588926 453.81943811478556 L 1718.0555592588926 453.81943811478556 L 1673.2638927240678 453.81943811478556 L 1673.2638927240678 549.2476785746392 Q 1673.2638927240678 551.5335581975404 1671.5856519882668 553.1828637482413 Q 1669.9363464375656 554.8611044840422 1667.6504668146645 554.8611044840422 L 1667.6504668146645 554.8611044840422 L 1624.7106521262403 554.8611044840422 Q 1622.4247725033392 554.8611044840422 1620.775466952638 553.1828637482413 Q 1619.097226216837 551.5335581975404 1619.097226216837 549.2476785746392 L 1619.097226216837 549.2476785746392 L 1619.097226216837 453.81943811478556 L 1574.3055596820122 453.81943811478556 Q 1572.0196800591107 453.81943811478556 1570.3414393233097 452.14119737898466 Q 1568.692133772609 450.4918918282837 1568.692133772609 448.2060122053824 L 1568.692133772609 448.2060122053824 L 1568.692133772609 414.6411974893636 Q 1568.692133772609 412.3553178664623 1570.3414393233097 410.7060123157614 Q 1572.0196800591107 409.0277715799605 1574.3055596820122 409.0277715799605 Z M 1834.722225582158 461.9502251278901 Q 1868.8946791852773 465.91434548659237 1883.3622717352855 476.6203639735984 Q 1897.8587994703935 487.3553176457044 1897.8587994703935 508.8252249899165 Q 1897.8587994703935 530.2661971490285 1876.7939847175821 543.6053174801359 Q 1855.75810514987 556.9444378112435 1820.9780126596506 556.9444378112435 Q 1786.168984984331 556.9444378112435 1766.89815170772 544.1261508119362 Q 1747.6273184311094 531.307863812629 1747.6273184311094 512.5578638678185 L 1747.6273184311094 512.5578638678185 Q 1747.6273184311094 507.98610462201594 1752.4305591577122 507.98610462201594 L 1752.4305591577122 507.98610462201594 L 1795.1388923653358 507.98610462201594 Q 1799.5081053154386 507.98610462201594 1802.2280127148397 510.70601202141745 L 1802.2280127148397 510.70601202141745 Q 1808.0439849199433 516.3194379308206 1822.4247719146515 516.3194379308206 L 1822.4247719146515 516.3194379308206 Q 1842.2164385230626 516.3194379308206 1842.2164385230626 510.27198424491723 L 1842.2164385230626 510.27198424491723 Q 1842.2164385230626 506.53934536701513 1835.966438541459 504.3402712994139 Q 1829.7164385598553 502.14119723181267 1811.1689849107452 500.0578639046115 L 1811.1689849107452 500.0578639046115 Q 1752.2280128620118 492.99767874020756 1752.2280128620118 454.86110477838616 L 1752.2280128620118 454.86110477838616 Q 1752.2280128620118 433.39119743417416 1771.1805591025227 420.1678178434667 Q 1790.133105343033 406.9444382527593 1821.903938582851 406.9444382527593 Q 1853.6747718226688 406.9444382527593 1873.2638921353796 420.8043919156671 Q 1892.8530124480908 434.66434557857485 1892.8530124480908 450.0578640517835 L 1892.8530124480908 450.0578640517835 Q 1892.8530124480908 452.14119737898466 1891.49305874839 453.41434552338535 Q 1890.1331050486892 454.65855848268603 1887.847225425788 454.65855848268603 L 1887.847225425788 454.65855848268603 L 1843.0555588909629 454.65855848268603 Q 1839.2939848279607 454.65855848268603 1836.6030126136593 452.14119737898466 L 1836.6030126136593 452.14119737898466 Q 1831.5972255913566 447.5694381331821 1821.5856515467508 447.5694381331821 L 1821.5856515467508 447.5694381331821 Q 1807.638892328543 447.5694381331821 1807.638892328543 453.41434552338535 L 1807.638892328543 453.41434552338535 Q 1807.638892328543 456.5393455141871 1813.049771942246 458.3043918052881 Q 1818.460651555949 460.0694380963891 1834.722225582158 461.9502251278901 L 1834.722225582158 461.9502251278901 Z M 1949.3055585782226 488.83101208580524 Q 1949.3055585782226 481.94443803200136 1956.4814844830266 477.0543917500986 Q 1963.6863455729303 472.16434546819585 1974.1898177642365 472.16434546819585 Q 1984.7222251406424 472.16434546819585 2000.8680584264512 476.5335584182983 Q 2017.0138917122604 480.90277136840075 2026.793984276066 480.90277136840075 Q 2036.6030120249711 480.90277136840075 2042.6504657108749 475.49189175469775 L 2042.6504657108749 475.49189175469775 Q 2044.7337990380756 473.8136510188968 2047.1064842162773 473.72684546359676 Q 2049.5081045795787 473.6111047231967 2050.462965687879 475.37615101429765 Q 2051.3888916110795 477.1411973053987 2051.3888916110795 481.307863959801 L 2051.3888916110795 481.307863959801 L 2051.3888916110795 501.73610464041246 Q 2051.3888916110795 508.6226786942163 2044.212965706276 513.512724976119 Q 2037.0081046163714 518.4027712580219 2026.5046324250657 518.4027712580219 Q 2015.9722250486598 518.4027712580219 1999.826391762851 514.0335583079193 Q 1983.6805584770418 509.6643453578169 1973.900465913236 509.6643453578169 Q 1964.0914381643306 509.6643453578169 1958.0439844784273 515.0752249715199 L 1958.0439844784273 515.0752249715199 Q 1955.960651151226 516.7245305222209 1953.587965973025 516.840271262621 Q 1951.1863456097235 516.956012003021 1950.231484501423 515.16203052682 Q 1949.3055585782226 513.396984235719 1949.3055585782226 509.2303175813167 L 1949.3055585782226 509.2303175813167 L 1949.3055585782226 488.83101208580524 Z" stroke-linecap="round" />
</g>
</svg>